<?xml version="1.0" standalone="no"?>
<svg xmlns:xlink="http://www.w3.org/1999/xlink" id="wave" style="transform:rotate(0deg); transition: 0.3s" viewBox="0 0 1440 140" version="1.1" xmlns="http://www.w3.org/2000/svg"><defs><linearGradient id="sw-gradient-0" x1="0" x2="0" y1="1" y2="0"><stop stop-color="rgba(29.043, 93.209, 227.999, 1)" offset="0%"/><stop stop-color="rgba(68.947, 206.448, 227.999, 1)" offset="100%"/></linearGradient></defs><path style="transform:translate(0, 0px); opacity:1" fill="url(#sw-gradient-0)" d="M0,98L48,95.7C96,93,192,89,288,77C384,65,480,47,576,39.7C672,33,768,37,864,53.7C960,70,1056,98,1152,95.7C1248,93,1344,61,1440,53.7C1536,47,1632,65,1728,60.7C1824,56,1920,28,2016,35C2112,42,2208,84,2304,100.3C2400,117,2496,107,2592,91C2688,75,2784,51,2880,35C2976,19,3072,9,3168,18.7C3264,28,3360,56,3456,65.3C3552,75,3648,65,3744,63C3840,61,3936,65,4032,70C4128,75,4224,79,4320,81.7C4416,84,4512,84,4608,77C4704,70,4800,56,4896,51.3C4992,47,5088,51,5184,58.3C5280,65,5376,75,5472,72.3C5568,70,5664,56,5760,46.7C5856,37,5952,33,6048,37.3C6144,42,6240,56,6336,70C6432,84,6528,98,6624,98C6720,98,6816,84,6864,77L6912,70L6912,140L6864,140C6816,140,6720,140,6624,140C6528,140,6432,140,6336,140C6240,140,6144,140,6048,140C5952,140,5856,140,5760,140C5664,140,5568,140,5472,140C5376,140,5280,140,5184,140C5088,140,4992,140,4896,140C4800,140,4704,140,4608,140C4512,140,4416,140,4320,140C4224,140,4128,140,4032,140C3936,140,3840,140,3744,140C3648,140,3552,140,3456,140C3360,140,3264,140,3168,140C3072,140,2976,140,2880,140C2784,140,2688,140,2592,140C2496,140,2400,140,2304,140C2208,140,2112,140,2016,140C1920,140,1824,140,1728,140C1632,140,1536,140,1440,140C1344,140,1248,140,1152,140C1056,140,960,140,864,140C768,140,672,140,576,140C480,140,384,140,288,140C192,140,96,140,48,140L0,140Z"/></svg>